<?xml version="1.0" encoding="UTF-8"?><svg xmlns="http://www.w3.org/2000/svg" class="header" enable-background="new 0 0 210 47" fill="none" height="40px" preserveAspectRatio="xMidYMid meet" viewBox="0 0 210 47" width="179px"><path d="M30.0059 42.4741H7.76797C3.4776 42.4741 0 38.9965 0 34.7061V12.4682C0 8.17779 3.4776 4.7002 7.76797 4.7002H30.0059C34.2963 4.7002 37.7739 8.17779 37.7739 12.4682V34.7061C37.7739 38.9965 34.2963 42.4741 30.0059 42.4741Z" fill="#EF3346"/><path d="M13.4566 21.4353C13.4566 21.1289 13.2301 20.9023 12.9237 20.9023H9.25953C8.95307 20.9023 8.72656 21.1289 8.72656 21.4353V25.0994C8.72656 25.4059 8.95307 25.6324 9.25953 25.6324H12.9237C13.2301 25.6324 13.4566 25.4059 13.4566 25.0994V21.4353Z" fill="#191E3B"/><path d="M21.5699 29.5496C21.5699 29.2431 21.3434 29.0166 21.0369 29.0166H17.3728C17.0664 29.0166 16.8398 29.2431 16.8398 29.5496V33.2137C16.8398 33.5202 17.0664 33.7467 17.3728 33.7467H21.0369C21.3567 33.7467 21.5699 33.5202 21.5699 33.2137V29.5496Z" fill="#191E3B"/><path d="M21.5699 21.4353C21.5699 21.1289 21.3434 20.9023 21.0369 20.9023H17.3728C17.0664 20.9023 16.8398 21.1289 16.8398 21.4353V25.0994C16.8398 25.4059 17.0664 25.6324 17.3728 25.6324H21.0369C21.3567 25.6324 21.5699 25.4059 21.5699 25.0994V21.4353Z" fill="#FDDB32"/><path d="M127.006 25.592C127.539 21.8612 129.484 19.4229 133.375 19.4229C137.359 19.4229 139.451 21.7013 139.77 25.592H127.006ZM133.468 15.7588C127.259 15.7588 122.289 20.2357 122.289 27.6439C122.289 35.2387 126.673 39.8888 134.041 39.8888C138.291 39.8888 141.822 38.0101 144.007 35.4119C144.141 35.2786 144.181 35.1454 144.181 35.0122C144.181 34.8789 144.141 34.7457 144.007 34.6124L141.955 32.6005C141.822 32.4672 141.689 32.4273 141.556 32.4273C141.423 32.4273 141.289 32.5205 141.156 32.6538C139.464 34.4925 137.265 36.0514 134.094 36.0514C129.471 36.0514 127.246 33.2001 126.899 29.0829H144.061C144.367 29.0829 144.594 28.8564 144.594 28.55V27.6572C144.594 20.8619 140.49 15.7588 133.468 15.7588Z" fill="#191E3B"/><path d="M74.1493 7.9375H70.4452C70.1388 7.9375 69.9122 8.16401 69.9122 8.47047V20.9818H54.856V8.47047C54.856 8.16401 54.6295 7.9375 54.323 7.9375H50.6189C50.3124 7.9375 50.0859 8.16401 50.0859 8.47047V38.6896C50.0859 38.996 50.3124 39.2225 50.6189 39.2225H54.323C54.6295 39.2225 54.856 38.996 54.856 38.6896V25.1922H69.9122V38.6896C69.9122 38.996 70.1388 39.2225 70.4452 39.2225H74.1493C74.4558 39.2225 74.6823 38.996 74.6823 38.6896V8.47047C74.6956 8.16401 74.4691 7.9375 74.1493 7.9375Z" fill="#191E3B"/><path d="M91.0574 35.9715C86.1008 35.9715 83.4626 32.2674 83.4626 27.8304C83.4626 23.4068 86.1008 19.6894 91.0574 19.6894C96.014 19.6894 98.6521 23.3935 98.6521 27.8304C98.6521 32.2541 96.014 35.9715 91.0574 35.9715ZM91.0574 15.7588C84.3953 15.7588 78.8125 20.6754 78.8125 27.8304C78.8125 34.9855 84.3953 39.9021 91.0574 39.9021C97.7194 39.9021 103.302 34.9855 103.302 27.8304C103.302 20.6754 97.7061 15.7588 91.0574 15.7588Z" fill="#191E3B"/><path d="M119.57 16.4784H113.761V8.92361C113.761 8.52388 113.361 8.33734 113.095 8.61715L109.47 12.2413C109.244 12.4678 109.111 12.6943 109.111 13.0408V16.4917H105.127C104.82 16.4917 104.594 16.7182 104.594 17.0247V19.5296C104.594 19.8494 104.82 20.0626 105.127 20.0626H109.111V32.2675C109.111 36.5179 111.123 39.236 115.373 39.236H119.57C119.877 39.236 120.103 39.0095 120.103 38.703V35.8383C120.103 35.5319 119.877 35.3054 119.57 35.3054H116.625C114.52 35.3054 113.761 34.5059 113.761 32.4007V20.0626H119.57C119.877 20.0626 120.103 19.8361 120.103 19.5296V17.0114C120.103 16.7049 119.877 16.4784 119.57 16.4784Z" fill="#191E3B"/><path d="M179.904 37.291H178.359C178.199 37.291 178.105 37.3976 178.105 37.5442V38.9832C178.105 39.1431 178.212 39.2363 178.359 39.2363H179.904C180.064 39.2363 180.157 39.1297 180.157 38.9832V37.5442C180.157 37.3976 180.064 37.291 179.904 37.291Z" fill="#191E3B"/><path d="M193.813 38.0103C192.374 38.0103 191.642 37.0376 191.642 35.7452C191.642 34.506 192.361 33.4801 193.813 33.4801C195.266 33.4801 195.972 34.506 195.972 35.7452C195.972 37.0376 195.252 38.0103 193.813 38.0103ZM193.813 32.0811C191.802 32.0811 190.109 33.5734 190.109 35.7452C190.109 37.957 191.815 39.4093 193.813 39.4093C195.825 39.4093 197.518 37.9703 197.518 35.7452C197.518 33.5867 195.825 32.0811 193.813 32.0811Z" fill="#191E3B"/><path d="M167.522 25.592C163.858 24.7925 162.073 24.1663 162.073 22.2876C162.073 20.5022 163.685 19.4229 166.55 19.4229C169.095 19.4229 171.107 20.5821 172.412 22.4209C172.586 22.6873 172.905 22.7273 173.172 22.5541L175.584 20.9952C175.85 20.822 175.943 20.5422 175.757 20.2357C173.785 17.2378 170.667 15.7588 166.59 15.7588C162.033 15.7588 157.969 17.9972 157.969 22.5541C157.969 27.3375 161.766 28.5899 166.776 29.6559C170.307 30.4153 171.866 31.0016 171.866 33.0935C171.866 35.1454 170.027 36.2246 166.95 36.2246C163.725 36.2246 161.673 34.9722 160.247 32.867C160.074 32.5605 159.754 32.4672 159.448 32.6938L157.036 34.3992C156.77 34.5725 156.73 34.8523 156.863 35.1187C158.702 38.2099 162.086 39.9421 166.923 39.9421C172.959 39.9421 176.45 36.9442 176.45 32.9203C176.423 28.2302 172.532 26.7112 167.522 25.592Z" fill="#191E3B"/><path d="M206.724 32.0811C205.698 32.0811 205.018 32.4941 204.458 33.1603C204.099 32.5474 203.326 32.0811 202.393 32.0811C201.421 32.0811 200.794 32.5474 200.435 33.0537V32.5474C200.435 32.3875 200.328 32.2942 200.181 32.2942H199.155C198.996 32.2942 198.902 32.4008 198.902 32.5474V38.9963C198.902 39.1562 199.009 39.2494 199.155 39.2494H200.235C200.395 39.2494 200.488 39.1428 200.488 38.9963V35.6519C200.488 34.3595 200.848 33.4934 201.98 33.4934C202.953 33.4934 203.273 34.0664 203.273 34.9857V39.0096C203.273 39.1695 203.379 39.2628 203.526 39.2628H204.605C204.765 39.2628 204.858 39.1562 204.858 39.0096V35.6652C204.858 34.3728 205.271 33.5067 206.404 33.5067C207.337 33.5067 207.696 34.0797 207.696 34.999V39.0229C207.696 39.1828 207.803 39.2761 207.949 39.2761H209.029C209.189 39.2761 209.282 39.1695 209.282 39.0229V34.7992C209.308 33.1736 208.322 32.0811 206.724 32.0811Z" fill="#191E3B"/><path d="M188.376 36.931C188.216 36.7711 188.07 36.8244 187.963 36.931C187.244 37.7038 186.777 38.0103 186.004 38.0103C184.712 38.0103 184.046 37.0376 184.046 35.7452C184.046 34.506 184.619 33.4801 185.951 33.4801C186.831 33.4801 187.297 33.8398 187.75 34.3595C187.857 34.4661 188.003 34.5194 188.163 34.4128L188.776 33.8931C188.936 33.7865 189.029 33.64 188.882 33.4268C188.31 32.654 187.337 32.0811 185.938 32.0811C183.819 32.0811 182.434 33.5201 182.434 35.7452C182.434 37.9703 183.819 39.4493 185.885 39.4493C187.324 39.4493 188.363 38.8364 189.029 37.9037C189.136 37.7438 189.136 37.6505 189.029 37.5439L188.376 36.931Z" fill="#191E3B"/><path d="M30.9681 13.9205C30.9681 12.5747 29.8889 11.5088 28.5565 11.5088H10.4889C10.1292 11.5088 9.90268 11.642 9.68949 11.8685L6.06533 15.4794C5.79885 15.7459 5.97206 16.1456 6.37179 16.1456H26.3047V36.0785C26.3047 36.4782 26.7044 36.6647 26.9709 36.3849L30.595 32.7608C30.8216 32.5343 30.9548 32.3078 30.9548 31.9613L30.9681 13.9205Z" fill="#191E3B"/><path d="M152.746 7.9375C153.053 7.9375 153.279 8.16401 153.279 8.47047V12.1213C153.279 12.4277 153.053 12.6542 152.746 12.6542H149.095C148.789 12.6542 148.562 12.4277 148.562 12.1213V8.47047C148.562 8.16401 148.789 7.9375 149.095 7.9375H152.746Z" fill="#191E3B"/><path d="M152.709 16.4517C153.016 16.4517 153.242 16.6782 153.242 16.9846V38.6097C153.242 38.9161 153.016 39.1426 152.709 39.1426H149.138C148.832 39.1426 148.605 38.9161 148.605 38.6097V16.998C148.605 16.6915 148.832 16.465 149.138 16.465H152.709" fill="#191E3B"/></svg>